<svg xmlns="http://www.w3.org/2000/svg" xmlns:xlink="http://www.w3.org/1999/xlink" viewBox="0 0 30 37.5" version="1.1" x="0px" y="0px"><title>cancel</title><desc>Created with Sketch.</desc><g stroke="none" stroke-width="1" fill="none" fill-rule="evenodd"><path d="M14.9996643,16.5719461 L6.87510076,24.6789778 C6.44614552,25.1070074 5.75067167,25.1070074 5.32171643,24.6789778 C4.89276119,24.2509482 4.89276119,23.5569751 5.32171643,23.1289455 L13.4682411,15 L5.32171643,6.87105451 C4.89276119,6.44302491 4.89276119,5.74905181 5.32171643,5.3210222 C5.75067167,4.8929926 6.44614552,4.8929926 6.87510076,5.3210222 L14.9996643,13.4280539 L23.1242279,5.3210222 C23.5531831,4.8929926 24.248657,4.8929926 24.6776122,5.3210222 C25.1065675,5.74905181 25.1065675,6.44302491 24.6776122,6.87105451 L16.5310875,15 L24.6776122,23.1289455 C25.1065675,23.5569751 25.1065675,24.2509482 24.6776122,24.6789778 C24.248657,25.1070074 23.5531831,25.1070074 23.1242279,24.6789778 L14.9996643,16.5719461 Z" fill="#000000"/></g></svg>