<svg xmlns="http://www.w3.org/2000/svg" xmlns:xlink="http://www.w3.org/1999/xlink" xmlns:serif="http://www.serif.com/" viewBox="0 0 100 125" version="1.1" xml:space="preserve" style="" x="0px" y="0px" fill-rule="evenodd" clip-rule="evenodd" stroke-linejoin="round" stroke-miterlimit="1.41421"><path d="M27.78,69.49C27.733,69.368 27.669,69.254 27.59,69.15C27.521,69.036 27.437,68.932 27.34,68.84C26.55,68.105 25.31,68.105 24.52,68.84C24.142,69.216 23.93,69.727 23.93,70.26C23.93,71.357 24.833,72.26 25.93,72.26C27.027,72.26 27.93,71.357 27.93,70.26C27.945,70.127 27.945,69.993 27.93,69.86C27.894,69.731 27.844,69.607 27.78,69.49Z" style="" fill-rule="nonzero"/><path d="M36.3,54.56C36.3,53.935 36.815,53.42 37.44,53.42C38.065,53.42 38.58,53.935 38.58,54.56C38.58,55.657 39.483,56.56 40.58,56.56C41.677,56.56 42.58,55.657 42.58,54.56C42.58,51.74 40.26,49.42 37.44,49.42C34.62,49.42 32.3,51.74 32.3,54.56C32.3,55.657 33.203,56.56 34.3,56.56C35.397,56.56 36.3,55.657 36.3,54.56Z" style="" fill-rule="nonzero"/><path d="M80.87,42.09L66.22,42.09C66.104,42.093 65.988,42.095 65.872,42.095C59.217,42.095 53.742,36.619 53.742,29.965C53.742,23.311 59.217,17.835 65.872,17.835C65.988,17.835 66.104,17.837 66.22,17.84L74.07,17.84C75.167,17.84 76.07,16.937 76.07,15.84C76.07,14.743 75.167,13.84 74.07,13.84L66.22,13.84C66.086,13.837 65.952,13.835 65.818,13.835C56.97,13.835 49.688,21.116 49.688,29.965C49.688,38.814 56.97,46.095 65.818,46.095C65.952,46.095 66.086,46.093 66.22,46.09L80.87,46.09C87.522,46.095 92.995,51.568 93,58.22L93,71.3C92.978,73.564 91.516,75.578 89.37,76.3C89.135,74.089 88.676,71.908 88,69.79L88,69.65C84.943,59.93 76.599,52.76 66.53,51.2C61.122,50.335 55.581,51.519 51,54.52C50.722,47.31 44.715,41.53 37.5,41.53C30.285,41.53 24.278,47.31 24,54.52C23.996,56.919 24.639,59.275 25.86,61.34C20.311,62.625 15.273,65.544 11.4,69.72C10.696,69.442 9.947,69.299 9.19,69.3C9.173,69.3 9.157,69.3 9.14,69.3C5.745,69.3 2.95,72.094 2.95,75.49C2.95,78.886 5.745,81.68 9.14,81.68C10.715,81.68 12.232,81.079 13.38,80L21.78,84.52L21,86.11C20.863,86.387 20.791,86.691 20.791,87C20.791,88.097 21.693,88.999 22.79,89L86.63,89C87.543,89 88.346,88.375 88.57,87.49C89.158,85.2 89.493,82.853 89.57,80.49C93.902,79.589 97.026,75.724 97,71.3L97,58.22C96.989,49.375 89.715,42.101 80.87,42.09ZM9.19,77.67C9.187,77.67 9.183,77.67 9.18,77.67C7.979,77.67 6.99,76.681 6.99,75.48C6.99,74.279 7.979,73.29 9.18,73.29C10.381,73.29 11.37,74.279 11.37,75.48C11.37,75.483 11.37,75.487 11.37,75.49C11.365,76.684 10.384,77.665 9.19,77.67ZM85,85L51.26,85C52.634,83.309 54.624,82.23 56.79,82L60.66,81.62C61.684,81.52 62.474,80.649 62.474,79.62C62.474,78.518 61.567,77.611 60.465,77.611C60.4,77.611 60.335,77.614 60.27,77.62L59.79,77.62C59.713,77.289 59.673,76.951 59.673,76.611C59.673,74.187 61.669,72.191 64.093,72.191C64.676,72.191 65.252,72.306 65.79,72.53L67.09,73.05C67.353,73.172 67.639,73.235 67.929,73.235C69.026,73.235 69.929,72.332 69.929,71.235C69.929,70.379 69.38,69.614 68.57,69.34L67.28,68.82C66.264,68.402 65.176,68.187 64.077,68.187C59.458,68.187 55.657,71.988 55.657,76.607C55.657,77.125 55.705,77.641 55.8,78.15C51.779,78.755 48.314,81.327 46.57,85L26.18,85C27.448,83.319 29.314,82.188 31.39,81.84L32.54,81.65C33.515,81.489 34.237,80.638 34.237,79.65C34.237,78.538 33.322,77.623 32.21,77.623C32.099,77.623 31.989,77.632 31.88,77.65L30.73,77.84C28.225,78.27 25.914,79.469 24.12,81.27C24.002,81.169 23.874,81.078 23.74,81L15.28,76.5C15.34,76.17 15.37,75.835 15.37,75.5C15.368,74.379 15.061,73.279 14.48,72.32C18.465,68.089 23.832,65.414 29.61,64.78L30.06,64.78L30.28,64.68L30.42,64.6C30.483,64.569 30.54,64.529 30.59,64.48L30.74,64.36L30.81,64.3C30.835,64.278 30.856,64.251 30.87,64.22L31.01,64.06L31.11,63.91L31.2,63.72C31.227,63.669 31.251,63.615 31.27,63.56L31.33,63.35L31.33,63.19C31.33,63.11 31.33,63.04 31.33,62.97L31.33,62.79C31.33,62.79 31.33,62.72 31.33,62.68C31.336,62.647 31.336,62.613 31.33,62.58L31.33,62.41C31.313,62.335 31.289,62.261 31.26,62.19L31.2,62.05C31.166,61.977 31.126,61.906 31.08,61.84L31,61.6C30.949,61.529 30.892,61.462 30.83,61.4C28.994,59.62 27.961,57.167 27.97,54.61C27.97,49.393 32.263,45.1 37.48,45.1C42.697,45.1 46.99,49.393 46.99,54.61C46.99,59.827 42.697,64.12 37.48,64.12C36.383,64.12 35.48,65.023 35.48,66.12C35.48,67.217 36.383,68.12 37.48,68.12C42.251,68.115 46.679,65.582 49.1,61.47C49.23,61.383 49.348,61.279 49.45,61.16C53.529,56.44 59.781,54.165 65.94,55.16C74.482,56.516 81.551,62.611 84.15,70.86L84.15,71.01C85.598,75.529 85.891,80.339 85,85Z" style="" fill-rule="nonzero"/></svg>